# xmcd
#
# Track frame offsets: 
#        150
#        9517
#        18445
#        30380
#        43156
#        58900
#        68700
#        81856
#        93024
#        103101
#        119044
#        133965
#
# Disc length: 2026 seconds
#
# Revision: 0
# Processed by: cddbd v1.5.2PL0 Copyright (c) Steve Scherf et al.
# Submitted via: ExactAudioCopy v1.0b3
#
DISCID=a007e80c
DTITLE=Elway - Leavetaking
DYEAR=2013
DGENRE=Punk
TTITLE0=The Great Divorce
TTITLE1=Salton Sea
TTITLE2=Prophetstown
TTITLE3=One Flew East
TTITLE4=One Flew West
TTITLE5=Someday, Sea Wolf
TTITLE6=Christopher
TTITLE7=Banned From Gun World
TTITLE8=Montreal
TTITLE9=Ariel
TTITLE10=There Is A Line
TTITLE11=Patria Mia (Room 20)
EXTD=
EXTT0=
EXTT1=
EXTT2=
EXTT3=
EXTT4=
EXTT5=
EXTT6=
EXTT7=
EXTT8=
EXTT9=
EXTT10=
EXTT11=
PLAYORDER=
